<mxfile host="Electron" modified="2024-03-21T04:05:00.594Z" agent="Mozilla/5.0 (Windows NT 10.0; Win64; x64) AppleWebKit/537.36 (KHTML, like Gecko) draw.io/21.2.8 Chrome/112.0.5615.165 Electron/24.2.0 Safari/537.36" etag="0v2-j6DWsmA4m_ORSlgP" version="21.2.8" type="device">
  <diagram id="FgPYdcFYgUgnHkmNDLdw" name="Página-1">
    <mxGraphModel dx="834" dy="496" grid="1" gridSize="10" guides="1" tooltips="1" connect="1" arrows="1" fold="1" page="1" pageScale="1" pageWidth="827" pageHeight="1169" math="0" shadow="0">
      <root>
        <mxCell id="0" />
        <mxCell id="1" parent="0" />
        <mxCell id="XaFl8BIAk3fpNfS8gTh8-29" style="edgeStyle=orthogonalEdgeStyle;rounded=0;orthogonalLoop=1;jettySize=auto;html=1;" parent="1" source="XaFl8BIAk3fpNfS8gTh8-16" target="XaFl8BIAk3fpNfS8gTh8-20" edge="1">
          <mxGeometry relative="1" as="geometry" />
        </mxCell>
        <mxCell id="XaFl8BIAk3fpNfS8gTh8-33" style="edgeStyle=orthogonalEdgeStyle;rounded=0;orthogonalLoop=1;jettySize=auto;html=1;" parent="1" source="XaFl8BIAk3fpNfS8gTh8-16" target="XaFl8BIAk3fpNfS8gTh8-17" edge="1">
          <mxGeometry relative="1" as="geometry" />
        </mxCell>
        <mxCell id="iETQVbHVjCS1s0NTEEo1-16" style="edgeStyle=orthogonalEdgeStyle;rounded=0;orthogonalLoop=1;jettySize=auto;html=1;entryX=0;entryY=0.5;entryDx=0;entryDy=0;" parent="1" source="XaFl8BIAk3fpNfS8gTh8-16" target="iETQVbHVjCS1s0NTEEo1-15" edge="1">
          <mxGeometry relative="1" as="geometry" />
        </mxCell>
        <mxCell id="XaFl8BIAk3fpNfS8gTh8-16" value="Proveedores" style="whiteSpace=wrap;html=1;align=center;" parent="1" vertex="1">
          <mxGeometry x="500" y="120" width="120" height="40" as="geometry" />
        </mxCell>
        <mxCell id="XaFl8BIAk3fpNfS8gTh8-45" style="edgeStyle=orthogonalEdgeStyle;rounded=0;orthogonalLoop=1;jettySize=auto;html=1;entryX=0.5;entryY=0;entryDx=0;entryDy=0;" parent="1" source="XaFl8BIAk3fpNfS8gTh8-17" target="XaFl8BIAk3fpNfS8gTh8-44" edge="1">
          <mxGeometry relative="1" as="geometry" />
        </mxCell>
        <mxCell id="XaFl8BIAk3fpNfS8gTh8-17" value="Tienen" style="shape=rhombus;perimeter=rhombusPerimeter;whiteSpace=wrap;html=1;align=center;" parent="1" vertex="1">
          <mxGeometry x="500" y="180" width="120" height="40" as="geometry" />
        </mxCell>
        <mxCell id="iETQVbHVjCS1s0NTEEo1-64" style="edgeStyle=orthogonalEdgeStyle;rounded=0;orthogonalLoop=1;jettySize=auto;html=1;entryX=0.5;entryY=0;entryDx=0;entryDy=0;" parent="1" source="XaFl8BIAk3fpNfS8gTh8-20" target="XaFl8BIAk3fpNfS8gTh8-31" edge="1">
          <mxGeometry relative="1" as="geometry" />
        </mxCell>
        <mxCell id="XaFl8BIAk3fpNfS8gTh8-20" value="Cuit Empresa" style="ellipse;whiteSpace=wrap;html=1;align=center;fontStyle=4;" parent="1" vertex="1">
          <mxGeometry x="40" y="187.5" width="100" height="40" as="geometry" />
        </mxCell>
        <mxCell id="XaFl8BIAk3fpNfS8gTh8-21" value="" style="edgeStyle=orthogonalEdgeStyle;rounded=0;orthogonalLoop=1;jettySize=auto;html=1;" parent="1" source="XaFl8BIAk3fpNfS8gTh8-22" target="XaFl8BIAk3fpNfS8gTh8-25" edge="1">
          <mxGeometry relative="1" as="geometry" />
        </mxCell>
        <mxCell id="XaFl8BIAk3fpNfS8gTh8-22" value="dirección" style="ellipse;whiteSpace=wrap;html=1;align=center;" parent="1" vertex="1">
          <mxGeometry x="40" y="370" width="100" height="40" as="geometry" />
        </mxCell>
        <mxCell id="XaFl8BIAk3fpNfS8gTh8-23" style="edgeStyle=orthogonalEdgeStyle;rounded=0;orthogonalLoop=1;jettySize=auto;html=1;entryX=0.5;entryY=0;entryDx=0;entryDy=0;" parent="1" target="XaFl8BIAk3fpNfS8gTh8-27" edge="1">
          <mxGeometry relative="1" as="geometry">
            <mxPoint x="90" y="520" as="sourcePoint" />
          </mxGeometry>
        </mxCell>
        <mxCell id="XaFl8BIAk3fpNfS8gTh8-24" style="edgeStyle=orthogonalEdgeStyle;rounded=0;orthogonalLoop=1;jettySize=auto;html=1;entryX=0.5;entryY=0;entryDx=0;entryDy=0;" parent="1" source="XaFl8BIAk3fpNfS8gTh8-25" target="XaFl8BIAk3fpNfS8gTh8-28" edge="1">
          <mxGeometry relative="1" as="geometry" />
        </mxCell>
        <mxCell id="XaFl8BIAk3fpNfS8gTh8-25" value="Teléfono" style="ellipse;whiteSpace=wrap;html=1;align=center;" parent="1" vertex="1">
          <mxGeometry x="40" y="430" width="100" height="40" as="geometry" />
        </mxCell>
        <mxCell id="iETQVbHVjCS1s0NTEEo1-71" style="edgeStyle=orthogonalEdgeStyle;rounded=0;orthogonalLoop=1;jettySize=auto;html=1;entryX=0.5;entryY=0;entryDx=0;entryDy=0;" parent="1" source="XaFl8BIAk3fpNfS8gTh8-27" target="iETQVbHVjCS1s0NTEEo1-70" edge="1">
          <mxGeometry relative="1" as="geometry" />
        </mxCell>
        <mxCell id="XaFl8BIAk3fpNfS8gTh8-27" value="Teléfono vendedor" style="ellipse;whiteSpace=wrap;html=1;align=center;" parent="1" vertex="1">
          <mxGeometry x="40" y="550" width="100" height="40" as="geometry" />
        </mxCell>
        <mxCell id="XaFl8BIAk3fpNfS8gTh8-28" value="Nombre Vendedor" style="ellipse;whiteSpace=wrap;html=1;align=center;" parent="1" vertex="1">
          <mxGeometry x="40" y="490" width="100" height="40" as="geometry" />
        </mxCell>
        <mxCell id="XaFl8BIAk3fpNfS8gTh8-30" value="&lt;b&gt;PK&lt;/b&gt;" style="text;html=1;strokeColor=none;fillColor=none;align=center;verticalAlign=middle;whiteSpace=wrap;rounded=0;" parent="1" vertex="1">
          <mxGeometry x="120" y="180" width="60" height="30" as="geometry" />
        </mxCell>
        <mxCell id="iETQVbHVjCS1s0NTEEo1-68" style="edgeStyle=orthogonalEdgeStyle;rounded=0;orthogonalLoop=1;jettySize=auto;html=1;entryX=0.5;entryY=0;entryDx=0;entryDy=0;" parent="1" source="XaFl8BIAk3fpNfS8gTh8-31" target="iETQVbHVjCS1s0NTEEo1-67" edge="1">
          <mxGeometry relative="1" as="geometry" />
        </mxCell>
        <mxCell id="XaFl8BIAk3fpNfS8gTh8-31" value="Lista proveedor" style="ellipse;whiteSpace=wrap;html=1;align=center;" parent="1" vertex="1">
          <mxGeometry x="40" y="252.5" width="100" height="40" as="geometry" />
        </mxCell>
        <mxCell id="XaFl8BIAk3fpNfS8gTh8-51" style="edgeStyle=orthogonalEdgeStyle;rounded=0;orthogonalLoop=1;jettySize=auto;html=1;entryX=0.5;entryY=0;entryDx=0;entryDy=0;" parent="1" source="XaFl8BIAk3fpNfS8gTh8-35" target="XaFl8BIAk3fpNfS8gTh8-43" edge="1">
          <mxGeometry relative="1" as="geometry" />
        </mxCell>
        <mxCell id="XaFl8BIAk3fpNfS8gTh8-35" value="Lista Proveedor" style="ellipse;whiteSpace=wrap;html=1;align=center;fontStyle=4;" parent="1" vertex="1">
          <mxGeometry x="160" y="280" width="100" height="40" as="geometry" />
        </mxCell>
        <mxCell id="XaFl8BIAk3fpNfS8gTh8-37" value="Codigo Producto" style="ellipse;whiteSpace=wrap;html=1;align=center;" parent="1" vertex="1">
          <mxGeometry x="160" y="400" width="100" height="40" as="geometry" />
        </mxCell>
        <mxCell id="XaFl8BIAk3fpNfS8gTh8-40" value="&lt;b&gt;PK&lt;/b&gt;" style="text;html=1;strokeColor=none;fillColor=none;align=center;verticalAlign=middle;whiteSpace=wrap;rounded=0;" parent="1" vertex="1">
          <mxGeometry x="220" y="260" width="60" height="30" as="geometry" />
        </mxCell>
        <mxCell id="XaFl8BIAk3fpNfS8gTh8-42" style="edgeStyle=orthogonalEdgeStyle;rounded=0;orthogonalLoop=1;jettySize=auto;html=1;entryX=0.5;entryY=0;entryDx=0;entryDy=0;" parent="1" source="XaFl8BIAk3fpNfS8gTh8-43" target="XaFl8BIAk3fpNfS8gTh8-37" edge="1">
          <mxGeometry relative="1" as="geometry" />
        </mxCell>
        <mxCell id="XaFl8BIAk3fpNfS8gTh8-43" value="Cuit Empresa" style="ellipse;whiteSpace=wrap;html=1;align=center;" parent="1" vertex="1">
          <mxGeometry x="160" y="340" width="100" height="40" as="geometry" />
        </mxCell>
        <mxCell id="XaFl8BIAk3fpNfS8gTh8-46" style="edgeStyle=orthogonalEdgeStyle;rounded=0;orthogonalLoop=1;jettySize=auto;html=1;exitX=0;exitY=0.5;exitDx=0;exitDy=0;entryX=0.5;entryY=0;entryDx=0;entryDy=0;" parent="1" source="XaFl8BIAk3fpNfS8gTh8-44" target="XaFl8BIAk3fpNfS8gTh8-35" edge="1">
          <mxGeometry relative="1" as="geometry" />
        </mxCell>
        <mxCell id="XaFl8BIAk3fpNfS8gTh8-50" style="edgeStyle=orthogonalEdgeStyle;rounded=0;orthogonalLoop=1;jettySize=auto;html=1;entryX=0.5;entryY=0;entryDx=0;entryDy=0;" parent="1" source="XaFl8BIAk3fpNfS8gTh8-44" target="XaFl8BIAk3fpNfS8gTh8-48" edge="1">
          <mxGeometry relative="1" as="geometry" />
        </mxCell>
        <mxCell id="XaFl8BIAk3fpNfS8gTh8-44" value="Listas Proveedores" style="whiteSpace=wrap;html=1;align=center;" parent="1" vertex="1">
          <mxGeometry x="500" y="240" width="120" height="40" as="geometry" />
        </mxCell>
        <mxCell id="XaFl8BIAk3fpNfS8gTh8-47" style="edgeStyle=orthogonalEdgeStyle;rounded=0;orthogonalLoop=1;jettySize=auto;html=1;entryX=0.5;entryY=0;entryDx=0;entryDy=0;" parent="1" source="XaFl8BIAk3fpNfS8gTh8-48" target="XaFl8BIAk3fpNfS8gTh8-49" edge="1">
          <mxGeometry relative="1" as="geometry" />
        </mxCell>
        <mxCell id="XaFl8BIAk3fpNfS8gTh8-48" value="Actualizan" style="shape=rhombus;perimeter=rhombusPerimeter;whiteSpace=wrap;html=1;align=center;" parent="1" vertex="1">
          <mxGeometry x="500" y="300" width="120" height="40" as="geometry" />
        </mxCell>
        <mxCell id="XaFl8BIAk3fpNfS8gTh8-83" style="edgeStyle=orthogonalEdgeStyle;rounded=0;orthogonalLoop=1;jettySize=auto;html=1;entryX=0.5;entryY=0;entryDx=0;entryDy=0;" parent="1" source="XaFl8BIAk3fpNfS8gTh8-49" target="XaFl8BIAk3fpNfS8gTh8-61" edge="1">
          <mxGeometry relative="1" as="geometry" />
        </mxCell>
        <mxCell id="XaFl8BIAk3fpNfS8gTh8-102" style="edgeStyle=orthogonalEdgeStyle;rounded=0;orthogonalLoop=1;jettySize=auto;html=1;entryX=0;entryY=0.5;entryDx=0;entryDy=0;" parent="1" source="XaFl8BIAk3fpNfS8gTh8-49" target="XaFl8BIAk3fpNfS8gTh8-100" edge="1">
          <mxGeometry relative="1" as="geometry" />
        </mxCell>
        <mxCell id="XaFl8BIAk3fpNfS8gTh8-49" value="Producto por Proveedor" style="whiteSpace=wrap;html=1;align=center;" parent="1" vertex="1">
          <mxGeometry x="500" y="360" width="120" height="40" as="geometry" />
        </mxCell>
        <mxCell id="XaFl8BIAk3fpNfS8gTh8-55" style="edgeStyle=orthogonalEdgeStyle;rounded=0;orthogonalLoop=1;jettySize=auto;html=1;entryX=0.5;entryY=1;entryDx=0;entryDy=0;" parent="1" source="XaFl8BIAk3fpNfS8gTh8-53" target="XaFl8BIAk3fpNfS8gTh8-49" edge="1">
          <mxGeometry relative="1" as="geometry" />
        </mxCell>
        <mxCell id="XaFl8BIAk3fpNfS8gTh8-53" value="Actualizan" style="shape=rhombus;perimeter=rhombusPerimeter;whiteSpace=wrap;html=1;align=center;" parent="1" vertex="1">
          <mxGeometry x="500" y="420" width="120" height="40" as="geometry" />
        </mxCell>
        <mxCell id="XaFl8BIAk3fpNfS8gTh8-58" style="edgeStyle=orthogonalEdgeStyle;rounded=0;orthogonalLoop=1;jettySize=auto;html=1;entryX=0.5;entryY=1;entryDx=0;entryDy=0;" parent="1" source="XaFl8BIAk3fpNfS8gTh8-54" target="XaFl8BIAk3fpNfS8gTh8-53" edge="1">
          <mxGeometry relative="1" as="geometry" />
        </mxCell>
        <mxCell id="XaFl8BIAk3fpNfS8gTh8-84" style="edgeStyle=orthogonalEdgeStyle;rounded=0;orthogonalLoop=1;jettySize=auto;html=1;entryX=0.5;entryY=0;entryDx=0;entryDy=0;" parent="1" source="XaFl8BIAk3fpNfS8gTh8-54" target="XaFl8BIAk3fpNfS8gTh8-79" edge="1">
          <mxGeometry relative="1" as="geometry" />
        </mxCell>
        <mxCell id="XaFl8BIAk3fpNfS8gTh8-54" value="Descripción Productos" style="whiteSpace=wrap;html=1;align=center;" parent="1" vertex="1">
          <mxGeometry x="500" y="480" width="120" height="40" as="geometry" />
        </mxCell>
        <mxCell id="XaFl8BIAk3fpNfS8gTh8-56" value="&lt;b&gt;1 : N&lt;/b&gt;" style="text;html=1;strokeColor=none;fillColor=none;align=center;verticalAlign=middle;whiteSpace=wrap;rounded=0;" parent="1" vertex="1">
          <mxGeometry x="590" y="170" width="60" height="30" as="geometry" />
        </mxCell>
        <mxCell id="XaFl8BIAk3fpNfS8gTh8-57" value="&lt;b&gt;N : 1&lt;/b&gt;" style="text;html=1;strokeColor=none;fillColor=none;align=center;verticalAlign=middle;whiteSpace=wrap;rounded=0;" parent="1" vertex="1">
          <mxGeometry x="590" y="290" width="60" height="30" as="geometry" />
        </mxCell>
        <mxCell id="XaFl8BIAk3fpNfS8gTh8-60" style="edgeStyle=orthogonalEdgeStyle;rounded=0;orthogonalLoop=1;jettySize=auto;html=1;entryX=0.5;entryY=0;entryDx=0;entryDy=0;" parent="1" source="XaFl8BIAk3fpNfS8gTh8-61" target="XaFl8BIAk3fpNfS8gTh8-63" edge="1">
          <mxGeometry relative="1" as="geometry" />
        </mxCell>
        <mxCell id="XaFl8BIAk3fpNfS8gTh8-61" value="Producto por proveedor" style="ellipse;whiteSpace=wrap;html=1;align=center;fontStyle=4;" parent="1" vertex="1">
          <mxGeometry x="280" y="430" width="100" height="40" as="geometry" />
        </mxCell>
        <mxCell id="XaFl8BIAk3fpNfS8gTh8-62" value="" style="edgeStyle=orthogonalEdgeStyle;rounded=0;orthogonalLoop=1;jettySize=auto;html=1;" parent="1" source="XaFl8BIAk3fpNfS8gTh8-63" edge="1">
          <mxGeometry relative="1" as="geometry">
            <mxPoint x="330" y="550" as="targetPoint" />
          </mxGeometry>
        </mxCell>
        <mxCell id="XaFl8BIAk3fpNfS8gTh8-63" value="&lt;span style=&quot;text-decoration-line: underline;&quot;&gt;Lista Proveedor&lt;/span&gt;" style="ellipse;whiteSpace=wrap;html=1;align=center;" parent="1" vertex="1">
          <mxGeometry x="280" y="490" width="100" height="40" as="geometry" />
        </mxCell>
        <mxCell id="XaFl8BIAk3fpNfS8gTh8-64" value="valor costo" style="ellipse;whiteSpace=wrap;html=1;align=center;" parent="1" vertex="1">
          <mxGeometry x="280" y="610" width="100" height="40" as="geometry" />
        </mxCell>
        <mxCell id="XaFl8BIAk3fpNfS8gTh8-65" style="edgeStyle=orthogonalEdgeStyle;rounded=0;orthogonalLoop=1;jettySize=auto;html=1;entryX=0.5;entryY=0;entryDx=0;entryDy=0;" parent="1" target="XaFl8BIAk3fpNfS8gTh8-68" edge="1">
          <mxGeometry relative="1" as="geometry">
            <mxPoint x="440" y="680" as="sourcePoint" />
          </mxGeometry>
        </mxCell>
        <mxCell id="XaFl8BIAk3fpNfS8gTh8-86" style="edgeStyle=orthogonalEdgeStyle;rounded=0;orthogonalLoop=1;jettySize=auto;html=1;entryX=0.5;entryY=0;entryDx=0;entryDy=0;" parent="1" source="XaFl8BIAk3fpNfS8gTh8-66" target="XaFl8BIAk3fpNfS8gTh8-64" edge="1">
          <mxGeometry relative="1" as="geometry" />
        </mxCell>
        <mxCell id="XaFl8BIAk3fpNfS8gTh8-66" value="&lt;span style=&quot;text-decoration-line: underline;&quot;&gt;Código Producto&lt;/span&gt;" style="ellipse;whiteSpace=wrap;html=1;align=center;" parent="1" vertex="1">
          <mxGeometry x="280" y="550" width="100" height="40" as="geometry" />
        </mxCell>
        <mxCell id="XaFl8BIAk3fpNfS8gTh8-68" value="presentación" style="ellipse;whiteSpace=wrap;html=1;align=center;" parent="1" vertex="1">
          <mxGeometry x="390" y="700" width="100" height="40" as="geometry" />
        </mxCell>
        <mxCell id="XaFl8BIAk3fpNfS8gTh8-76" value="&lt;b&gt;La tabla proveedores es una tabla definición de la&amp;nbsp; lista proveedores&lt;/b&gt;" style="text;html=1;strokeColor=none;fillColor=none;align=center;verticalAlign=middle;whiteSpace=wrap;rounded=0;" parent="1" vertex="1">
          <mxGeometry x="290" y="120" width="200" height="80" as="geometry" />
        </mxCell>
        <mxCell id="XaFl8BIAk3fpNfS8gTh8-77" value="&lt;b&gt;PK&lt;/b&gt;" style="text;html=1;strokeColor=none;fillColor=none;align=center;verticalAlign=middle;whiteSpace=wrap;rounded=0;" parent="1" vertex="1">
          <mxGeometry x="340" y="410" width="60" height="30" as="geometry" />
        </mxCell>
        <mxCell id="XaFl8BIAk3fpNfS8gTh8-78" style="edgeStyle=orthogonalEdgeStyle;rounded=0;orthogonalLoop=1;jettySize=auto;html=1;entryX=0.5;entryY=0;entryDx=0;entryDy=0;" parent="1" source="XaFl8BIAk3fpNfS8gTh8-79" target="XaFl8BIAk3fpNfS8gTh8-81" edge="1">
          <mxGeometry relative="1" as="geometry" />
        </mxCell>
        <mxCell id="XaFl8BIAk3fpNfS8gTh8-79" value="Código Producto" style="ellipse;whiteSpace=wrap;html=1;align=center;fontStyle=4;" parent="1" vertex="1">
          <mxGeometry x="390" y="520" width="100" height="40" as="geometry" />
        </mxCell>
        <mxCell id="XaFl8BIAk3fpNfS8gTh8-80" value="" style="edgeStyle=orthogonalEdgeStyle;rounded=0;orthogonalLoop=1;jettySize=auto;html=1;" parent="1" source="XaFl8BIAk3fpNfS8gTh8-81" edge="1">
          <mxGeometry relative="1" as="geometry">
            <mxPoint x="440" y="640" as="targetPoint" />
          </mxGeometry>
        </mxCell>
        <mxCell id="XaFl8BIAk3fpNfS8gTh8-81" value="Nombre producto" style="ellipse;whiteSpace=wrap;html=1;align=center;" parent="1" vertex="1">
          <mxGeometry x="390" y="580" width="100" height="40" as="geometry" />
        </mxCell>
        <mxCell id="XaFl8BIAk3fpNfS8gTh8-82" value="Descripción" style="ellipse;whiteSpace=wrap;html=1;align=center;" parent="1" vertex="1">
          <mxGeometry x="390" y="640" width="100" height="40" as="geometry" />
        </mxCell>
        <mxCell id="XaFl8BIAk3fpNfS8gTh8-85" value="&lt;b&gt;PK&lt;/b&gt;" style="text;html=1;strokeColor=none;fillColor=none;align=center;verticalAlign=middle;whiteSpace=wrap;rounded=0;" parent="1" vertex="1">
          <mxGeometry x="430" y="495" width="60" height="30" as="geometry" />
        </mxCell>
        <mxCell id="XaFl8BIAk3fpNfS8gTh8-87" value="&lt;b&gt;N : 1&lt;/b&gt;" style="text;html=1;strokeColor=none;fillColor=none;align=center;verticalAlign=middle;whiteSpace=wrap;rounded=0;" parent="1" vertex="1">
          <mxGeometry x="590" y="410" width="60" height="30" as="geometry" />
        </mxCell>
        <mxCell id="XaFl8BIAk3fpNfS8gTh8-149" style="edgeStyle=orthogonalEdgeStyle;rounded=0;orthogonalLoop=1;jettySize=auto;html=1;entryX=1;entryY=0.25;entryDx=0;entryDy=0;" parent="1" source="XaFl8BIAk3fpNfS8gTh8-88" target="XaFl8BIAk3fpNfS8gTh8-101" edge="1">
          <mxGeometry relative="1" as="geometry" />
        </mxCell>
        <mxCell id="XaFl8BIAk3fpNfS8gTh8-88" value="Actualiza" style="shape=rhombus;perimeter=rhombusPerimeter;whiteSpace=wrap;html=1;align=center;" parent="1" vertex="1">
          <mxGeometry x="960" y="360" width="120" height="40" as="geometry" />
        </mxCell>
        <mxCell id="XaFl8BIAk3fpNfS8gTh8-104" style="edgeStyle=orthogonalEdgeStyle;rounded=0;orthogonalLoop=1;jettySize=auto;html=1;entryX=1;entryY=0.5;entryDx=0;entryDy=0;" parent="1" source="XaFl8BIAk3fpNfS8gTh8-91" target="XaFl8BIAk3fpNfS8gTh8-88" edge="1">
          <mxGeometry relative="1" as="geometry" />
        </mxCell>
        <mxCell id="XaFl8BIAk3fpNfS8gTh8-91" value="Detalle Factura compra" style="whiteSpace=wrap;html=1;align=center;" parent="1" vertex="1">
          <mxGeometry x="1040" y="280" width="120" height="40" as="geometry" />
        </mxCell>
        <mxCell id="XaFl8BIAk3fpNfS8gTh8-145" style="edgeStyle=orthogonalEdgeStyle;rounded=0;orthogonalLoop=1;jettySize=auto;html=1;entryX=0;entryY=0.25;entryDx=0;entryDy=0;" parent="1" source="XaFl8BIAk3fpNfS8gTh8-100" target="XaFl8BIAk3fpNfS8gTh8-101" edge="1">
          <mxGeometry relative="1" as="geometry" />
        </mxCell>
        <mxCell id="XaFl8BIAk3fpNfS8gTh8-100" value="Compras" style="shape=rhombus;perimeter=rhombusPerimeter;whiteSpace=wrap;html=1;align=center;" parent="1" vertex="1">
          <mxGeometry x="680" y="360" width="80" height="40" as="geometry" />
        </mxCell>
        <mxCell id="XaFl8BIAk3fpNfS8gTh8-118" style="edgeStyle=orthogonalEdgeStyle;rounded=0;orthogonalLoop=1;jettySize=auto;html=1;entryX=0.5;entryY=1;entryDx=0;entryDy=0;" parent="1" source="XaFl8BIAk3fpNfS8gTh8-101" target="XaFl8BIAk3fpNfS8gTh8-109" edge="1">
          <mxGeometry relative="1" as="geometry" />
        </mxCell>
        <mxCell id="XaFl8BIAk3fpNfS8gTh8-101" value="Stock" style="whiteSpace=wrap;html=1;align=center;" parent="1" vertex="1">
          <mxGeometry x="800" y="360" width="120" height="120" as="geometry" />
        </mxCell>
        <mxCell id="XaFl8BIAk3fpNfS8gTh8-105" value="&lt;b&gt;1 : N&lt;/b&gt;" style="text;html=1;strokeColor=none;fillColor=none;align=center;verticalAlign=middle;whiteSpace=wrap;rounded=0;" parent="1" vertex="1">
          <mxGeometry x="720" y="350" width="60" height="30" as="geometry" />
        </mxCell>
        <mxCell id="XaFl8BIAk3fpNfS8gTh8-106" value="&lt;b&gt;N : 1&lt;/b&gt;" style="text;html=1;strokeColor=none;fillColor=none;align=center;verticalAlign=middle;whiteSpace=wrap;rounded=0;" parent="1" vertex="1">
          <mxGeometry x="1030" y="345" width="60" height="30" as="geometry" />
        </mxCell>
        <mxCell id="iETQVbHVjCS1s0NTEEo1-38" style="edgeStyle=orthogonalEdgeStyle;rounded=0;orthogonalLoop=1;jettySize=auto;html=1;entryX=0.5;entryY=1;entryDx=0;entryDy=0;" parent="1" source="XaFl8BIAk3fpNfS8gTh8-109" target="iETQVbHVjCS1s0NTEEo1-37" edge="1">
          <mxGeometry relative="1" as="geometry" />
        </mxCell>
        <mxCell id="XaFl8BIAk3fpNfS8gTh8-109" value="Producto por proveedor en stock" style="ellipse;whiteSpace=wrap;html=1;align=center;fontStyle=4;" parent="1" vertex="1">
          <mxGeometry x="790" y="305" width="140" height="40" as="geometry" />
        </mxCell>
        <mxCell id="iETQVbHVjCS1s0NTEEo1-92" style="edgeStyle=orthogonalEdgeStyle;rounded=0;orthogonalLoop=1;jettySize=auto;html=1;entryX=0;entryY=0.5;entryDx=0;entryDy=0;" parent="1" source="XaFl8BIAk3fpNfS8gTh8-112" target="iETQVbHVjCS1s0NTEEo1-91" edge="1">
          <mxGeometry relative="1" as="geometry" />
        </mxCell>
        <mxCell id="XaFl8BIAk3fpNfS8gTh8-112" value="Cantidad disponible" style="ellipse;whiteSpace=wrap;html=1;align=center;" parent="1" vertex="1">
          <mxGeometry x="810" y="180" width="100" height="40" as="geometry" />
        </mxCell>
        <mxCell id="XaFl8BIAk3fpNfS8gTh8-120" value="&lt;b&gt;PK&lt;/b&gt;" style="text;html=1;strokeColor=none;fillColor=none;align=center;verticalAlign=middle;whiteSpace=wrap;rounded=0;" parent="1" vertex="1">
          <mxGeometry x="890" y="290" width="60" height="30" as="geometry" />
        </mxCell>
        <mxCell id="XaFl8BIAk3fpNfS8gTh8-121" style="edgeStyle=orthogonalEdgeStyle;rounded=0;orthogonalLoop=1;jettySize=auto;html=1;" parent="1" source="XaFl8BIAk3fpNfS8gTh8-122" target="XaFl8BIAk3fpNfS8gTh8-124" edge="1">
          <mxGeometry relative="1" as="geometry" />
        </mxCell>
        <mxCell id="XaFl8BIAk3fpNfS8gTh8-138" style="edgeStyle=orthogonalEdgeStyle;rounded=0;orthogonalLoop=1;jettySize=auto;html=1;entryX=0.5;entryY=1;entryDx=0;entryDy=0;" parent="1" source="XaFl8BIAk3fpNfS8gTh8-122" target="XaFl8BIAk3fpNfS8gTh8-137" edge="1">
          <mxGeometry relative="1" as="geometry" />
        </mxCell>
        <mxCell id="iETQVbHVjCS1s0NTEEo1-22" style="edgeStyle=orthogonalEdgeStyle;rounded=0;orthogonalLoop=1;jettySize=auto;html=1;entryX=0;entryY=0.5;entryDx=0;entryDy=0;" parent="1" source="XaFl8BIAk3fpNfS8gTh8-122" target="iETQVbHVjCS1s0NTEEo1-21" edge="1">
          <mxGeometry relative="1" as="geometry">
            <Array as="points">
              <mxPoint x="680" y="575" />
              <mxPoint x="680" y="780" />
            </Array>
          </mxGeometry>
        </mxCell>
        <mxCell id="XaFl8BIAk3fpNfS8gTh8-122" value="Clientes" style="whiteSpace=wrap;html=1;align=center;" parent="1" vertex="1">
          <mxGeometry x="500" y="560" width="120" height="30" as="geometry" />
        </mxCell>
        <mxCell id="XaFl8BIAk3fpNfS8gTh8-123" style="edgeStyle=orthogonalEdgeStyle;rounded=0;orthogonalLoop=1;jettySize=auto;html=1;entryX=0.5;entryY=0;entryDx=0;entryDy=0;" parent="1" source="XaFl8BIAk3fpNfS8gTh8-124" target="XaFl8BIAk3fpNfS8gTh8-126" edge="1">
          <mxGeometry relative="1" as="geometry" />
        </mxCell>
        <mxCell id="XaFl8BIAk3fpNfS8gTh8-124" value="CUIT o CUIL" style="ellipse;whiteSpace=wrap;html=1;align=center;fontStyle=4;" parent="1" vertex="1">
          <mxGeometry x="510" y="630" width="100" height="40" as="geometry" />
        </mxCell>
        <mxCell id="XaFl8BIAk3fpNfS8gTh8-125" value="" style="edgeStyle=orthogonalEdgeStyle;rounded=0;orthogonalLoop=1;jettySize=auto;html=1;" parent="1" source="XaFl8BIAk3fpNfS8gTh8-126" target="XaFl8BIAk3fpNfS8gTh8-128" edge="1">
          <mxGeometry relative="1" as="geometry" />
        </mxCell>
        <mxCell id="XaFl8BIAk3fpNfS8gTh8-126" value="Apellido" style="ellipse;whiteSpace=wrap;html=1;align=center;" parent="1" vertex="1">
          <mxGeometry x="510" y="690" width="100" height="40" as="geometry" />
        </mxCell>
        <mxCell id="XaFl8BIAk3fpNfS8gTh8-127" style="edgeStyle=orthogonalEdgeStyle;rounded=0;orthogonalLoop=1;jettySize=auto;html=1;entryX=0.5;entryY=0;entryDx=0;entryDy=0;" parent="1" source="XaFl8BIAk3fpNfS8gTh8-128" target="XaFl8BIAk3fpNfS8gTh8-130" edge="1">
          <mxGeometry relative="1" as="geometry" />
        </mxCell>
        <mxCell id="XaFl8BIAk3fpNfS8gTh8-128" value="Nombre" style="ellipse;whiteSpace=wrap;html=1;align=center;" parent="1" vertex="1">
          <mxGeometry x="510" y="750" width="100" height="40" as="geometry" />
        </mxCell>
        <mxCell id="XaFl8BIAk3fpNfS8gTh8-129" style="edgeStyle=orthogonalEdgeStyle;rounded=0;orthogonalLoop=1;jettySize=auto;html=1;entryX=0.5;entryY=0;entryDx=0;entryDy=0;" parent="1" source="XaFl8BIAk3fpNfS8gTh8-130" target="XaFl8BIAk3fpNfS8gTh8-132" edge="1">
          <mxGeometry relative="1" as="geometry" />
        </mxCell>
        <mxCell id="XaFl8BIAk3fpNfS8gTh8-130" value="Dirección" style="ellipse;whiteSpace=wrap;html=1;align=center;" parent="1" vertex="1">
          <mxGeometry x="510" y="810" width="100" height="40" as="geometry" />
        </mxCell>
        <mxCell id="XaFl8BIAk3fpNfS8gTh8-131" value="" style="edgeStyle=orthogonalEdgeStyle;rounded=0;orthogonalLoop=1;jettySize=auto;html=1;" parent="1" source="XaFl8BIAk3fpNfS8gTh8-132" target="XaFl8BIAk3fpNfS8gTh8-134" edge="1">
          <mxGeometry relative="1" as="geometry" />
        </mxCell>
        <mxCell id="XaFl8BIAk3fpNfS8gTh8-132" value="Teléfono" style="ellipse;whiteSpace=wrap;html=1;align=center;" parent="1" vertex="1">
          <mxGeometry x="510" y="870" width="100" height="40" as="geometry" />
        </mxCell>
        <mxCell id="XaFl8BIAk3fpNfS8gTh8-133" style="edgeStyle=orthogonalEdgeStyle;rounded=0;orthogonalLoop=1;jettySize=auto;html=1;entryX=0.5;entryY=0;entryDx=0;entryDy=0;" parent="1" source="XaFl8BIAk3fpNfS8gTh8-134" target="XaFl8BIAk3fpNfS8gTh8-135" edge="1">
          <mxGeometry relative="1" as="geometry" />
        </mxCell>
        <mxCell id="XaFl8BIAk3fpNfS8gTh8-134" value="Condición tributaria" style="ellipse;whiteSpace=wrap;html=1;align=center;" parent="1" vertex="1">
          <mxGeometry x="510" y="930" width="100" height="40" as="geometry" />
        </mxCell>
        <mxCell id="XaFl8BIAk3fpNfS8gTh8-135" value="Fecha de nacimiento" style="ellipse;whiteSpace=wrap;html=1;align=center;" parent="1" vertex="1">
          <mxGeometry x="510" y="990" width="100" height="40" as="geometry" />
        </mxCell>
        <mxCell id="XaFl8BIAk3fpNfS8gTh8-136" value="&lt;b&gt;PK&lt;/b&gt;" style="text;html=1;strokeColor=none;fillColor=none;align=center;verticalAlign=middle;whiteSpace=wrap;rounded=0;" parent="1" vertex="1">
          <mxGeometry x="550" y="610" width="60" height="30" as="geometry" />
        </mxCell>
        <mxCell id="XaFl8BIAk3fpNfS8gTh8-148" style="edgeStyle=orthogonalEdgeStyle;rounded=0;orthogonalLoop=1;jettySize=auto;html=1;entryX=0;entryY=0.75;entryDx=0;entryDy=0;" parent="1" source="XaFl8BIAk3fpNfS8gTh8-137" target="XaFl8BIAk3fpNfS8gTh8-101" edge="1">
          <mxGeometry relative="1" as="geometry" />
        </mxCell>
        <mxCell id="XaFl8BIAk3fpNfS8gTh8-137" value="Ventas" style="shape=rhombus;perimeter=rhombusPerimeter;whiteSpace=wrap;html=1;align=center;" parent="1" vertex="1">
          <mxGeometry x="680" y="440" width="80" height="40" as="geometry" />
        </mxCell>
        <mxCell id="XaFl8BIAk3fpNfS8gTh8-150" style="edgeStyle=orthogonalEdgeStyle;rounded=0;orthogonalLoop=1;jettySize=auto;html=1;entryX=1;entryY=0.75;entryDx=0;entryDy=0;" parent="1" source="XaFl8BIAk3fpNfS8gTh8-141" target="XaFl8BIAk3fpNfS8gTh8-101" edge="1">
          <mxGeometry relative="1" as="geometry" />
        </mxCell>
        <mxCell id="XaFl8BIAk3fpNfS8gTh8-141" value="Actualiza" style="shape=rhombus;perimeter=rhombusPerimeter;whiteSpace=wrap;html=1;align=center;" parent="1" vertex="1">
          <mxGeometry x="960" y="440" width="120" height="40" as="geometry" />
        </mxCell>
        <mxCell id="XaFl8BIAk3fpNfS8gTh8-142" style="edgeStyle=orthogonalEdgeStyle;rounded=0;orthogonalLoop=1;jettySize=auto;html=1;entryX=1;entryY=0.5;entryDx=0;entryDy=0;" parent="1" source="XaFl8BIAk3fpNfS8gTh8-143" target="XaFl8BIAk3fpNfS8gTh8-141" edge="1">
          <mxGeometry relative="1" as="geometry" />
        </mxCell>
        <mxCell id="iETQVbHVjCS1s0NTEEo1-42" style="edgeStyle=orthogonalEdgeStyle;rounded=0;orthogonalLoop=1;jettySize=auto;html=1;entryX=0;entryY=0.5;entryDx=0;entryDy=0;" parent="1" source="XaFl8BIAk3fpNfS8gTh8-143" target="iETQVbHVjCS1s0NTEEo1-4" edge="1">
          <mxGeometry relative="1" as="geometry" />
        </mxCell>
        <mxCell id="XaFl8BIAk3fpNfS8gTh8-143" value="Detalle Factura venta" style="whiteSpace=wrap;html=1;align=center;" parent="1" vertex="1">
          <mxGeometry x="1040" y="600" width="120" height="40" as="geometry" />
        </mxCell>
        <mxCell id="XaFl8BIAk3fpNfS8gTh8-144" value="&lt;b&gt;N : 1&lt;/b&gt;" style="text;html=1;strokeColor=none;fillColor=none;align=center;verticalAlign=middle;whiteSpace=wrap;rounded=0;" parent="1" vertex="1">
          <mxGeometry x="1030" y="415" width="60" height="30" as="geometry" />
        </mxCell>
        <mxCell id="iETQVbHVjCS1s0NTEEo1-41" style="edgeStyle=orthogonalEdgeStyle;rounded=0;orthogonalLoop=1;jettySize=auto;html=1;entryX=0.5;entryY=0;entryDx=0;entryDy=0;" parent="1" source="iETQVbHVjCS1s0NTEEo1-2" target="iETQVbHVjCS1s0NTEEo1-32" edge="1">
          <mxGeometry relative="1" as="geometry" />
        </mxCell>
        <mxCell id="iETQVbHVjCS1s0NTEEo1-2" value="Nro de Factura" style="ellipse;whiteSpace=wrap;html=1;align=center;fontStyle=4;" parent="1" vertex="1">
          <mxGeometry x="1201" y="870" width="120" height="45" as="geometry" />
        </mxCell>
        <mxCell id="iETQVbHVjCS1s0NTEEo1-116" style="edgeStyle=orthogonalEdgeStyle;rounded=0;orthogonalLoop=1;jettySize=auto;html=1;entryX=0.5;entryY=0;entryDx=0;entryDy=0;" parent="1" source="iETQVbHVjCS1s0NTEEo1-4" target="iETQVbHVjCS1s0NTEEo1-108" edge="1">
          <mxGeometry relative="1" as="geometry" />
        </mxCell>
        <mxCell id="iETQVbHVjCS1s0NTEEo1-4" value="Producto por proveedor" style="ellipse;whiteSpace=wrap;html=1;align=center;" parent="1" vertex="1">
          <mxGeometry x="1210" y="610" width="100" height="40" as="geometry" />
        </mxCell>
        <mxCell id="iETQVbHVjCS1s0NTEEo1-7" value="Cantidad" style="ellipse;whiteSpace=wrap;html=1;align=center;" parent="1" vertex="1">
          <mxGeometry x="1210" y="740" width="100" height="40" as="geometry" />
        </mxCell>
        <mxCell id="iETQVbHVjCS1s0NTEEo1-20" style="edgeStyle=orthogonalEdgeStyle;rounded=0;orthogonalLoop=1;jettySize=auto;html=1;" parent="1" source="iETQVbHVjCS1s0NTEEo1-8" target="XaFl8BIAk3fpNfS8gTh8-91" edge="1">
          <mxGeometry relative="1" as="geometry" />
        </mxCell>
        <mxCell id="iETQVbHVjCS1s0NTEEo1-8" value="Tienen" style="shape=rhombus;perimeter=rhombusPerimeter;whiteSpace=wrap;html=1;align=center;" parent="1" vertex="1">
          <mxGeometry x="1040" y="200" width="120" height="40" as="geometry" />
        </mxCell>
        <mxCell id="iETQVbHVjCS1s0NTEEo1-18" style="edgeStyle=orthogonalEdgeStyle;rounded=0;orthogonalLoop=1;jettySize=auto;html=1;entryX=0.5;entryY=0;entryDx=0;entryDy=0;" parent="1" source="iETQVbHVjCS1s0NTEEo1-10" target="iETQVbHVjCS1s0NTEEo1-8" edge="1">
          <mxGeometry relative="1" as="geometry" />
        </mxCell>
        <mxCell id="iETQVbHVjCS1s0NTEEo1-10" value="Factura compra" style="whiteSpace=wrap;html=1;align=center;" parent="1" vertex="1">
          <mxGeometry x="1040" y="120" width="120" height="40" as="geometry" />
        </mxCell>
        <mxCell id="iETQVbHVjCS1s0NTEEo1-12" style="edgeStyle=orthogonalEdgeStyle;rounded=0;orthogonalLoop=1;jettySize=auto;html=1;exitX=0.5;exitY=1;exitDx=0;exitDy=0;" parent="1" source="iETQVbHVjCS1s0NTEEo1-7" target="iETQVbHVjCS1s0NTEEo1-7" edge="1">
          <mxGeometry relative="1" as="geometry" />
        </mxCell>
        <mxCell id="iETQVbHVjCS1s0NTEEo1-46" style="edgeStyle=orthogonalEdgeStyle;rounded=0;orthogonalLoop=1;jettySize=auto;html=1;entryX=0;entryY=0.5;entryDx=0;entryDy=0;" parent="1" source="iETQVbHVjCS1s0NTEEo1-15" target="iETQVbHVjCS1s0NTEEo1-10" edge="1">
          <mxGeometry relative="1" as="geometry" />
        </mxCell>
        <mxCell id="iETQVbHVjCS1s0NTEEo1-15" value="Tienen" style="shape=rhombus;perimeter=rhombusPerimeter;whiteSpace=wrap;html=1;align=center;" parent="1" vertex="1">
          <mxGeometry x="800" y="120" width="120" height="40" as="geometry" />
        </mxCell>
        <mxCell id="iETQVbHVjCS1s0NTEEo1-47" style="edgeStyle=orthogonalEdgeStyle;rounded=0;orthogonalLoop=1;jettySize=auto;html=1;entryX=0;entryY=0.5;entryDx=0;entryDy=0;" parent="1" source="iETQVbHVjCS1s0NTEEo1-21" target="iETQVbHVjCS1s0NTEEo1-24" edge="1">
          <mxGeometry relative="1" as="geometry" />
        </mxCell>
        <mxCell id="iETQVbHVjCS1s0NTEEo1-21" value="Tienen" style="shape=rhombus;perimeter=rhombusPerimeter;whiteSpace=wrap;html=1;align=center;" parent="1" vertex="1">
          <mxGeometry x="800" y="760" width="120" height="40" as="geometry" />
        </mxCell>
        <mxCell id="iETQVbHVjCS1s0NTEEo1-27" style="edgeStyle=orthogonalEdgeStyle;rounded=0;orthogonalLoop=1;jettySize=auto;html=1;entryX=0.5;entryY=1;entryDx=0;entryDy=0;" parent="1" source="iETQVbHVjCS1s0NTEEo1-24" target="iETQVbHVjCS1s0NTEEo1-26" edge="1">
          <mxGeometry relative="1" as="geometry" />
        </mxCell>
        <mxCell id="iETQVbHVjCS1s0NTEEo1-30" style="edgeStyle=orthogonalEdgeStyle;rounded=0;orthogonalLoop=1;jettySize=auto;html=1;entryX=0;entryY=0.5;entryDx=0;entryDy=0;" parent="1" source="iETQVbHVjCS1s0NTEEo1-24" target="iETQVbHVjCS1s0NTEEo1-2" edge="1">
          <mxGeometry relative="1" as="geometry" />
        </mxCell>
        <mxCell id="iETQVbHVjCS1s0NTEEo1-24" value="Factura venta" style="whiteSpace=wrap;html=1;align=center;" parent="1" vertex="1">
          <mxGeometry x="1040" y="760" width="120" height="40" as="geometry" />
        </mxCell>
        <mxCell id="iETQVbHVjCS1s0NTEEo1-28" style="edgeStyle=orthogonalEdgeStyle;rounded=0;orthogonalLoop=1;jettySize=auto;html=1;entryX=0.5;entryY=1;entryDx=0;entryDy=0;" parent="1" source="iETQVbHVjCS1s0NTEEo1-26" target="XaFl8BIAk3fpNfS8gTh8-143" edge="1">
          <mxGeometry relative="1" as="geometry" />
        </mxCell>
        <mxCell id="iETQVbHVjCS1s0NTEEo1-26" value="Tienen" style="shape=rhombus;perimeter=rhombusPerimeter;whiteSpace=wrap;html=1;align=center;" parent="1" vertex="1">
          <mxGeometry x="1040" y="680" width="120" height="40" as="geometry" />
        </mxCell>
        <mxCell id="iETQVbHVjCS1s0NTEEo1-34" style="edgeStyle=orthogonalEdgeStyle;rounded=0;orthogonalLoop=1;jettySize=auto;html=1;entryX=0.5;entryY=0;entryDx=0;entryDy=0;" parent="1" source="iETQVbHVjCS1s0NTEEo1-32" target="iETQVbHVjCS1s0NTEEo1-33" edge="1">
          <mxGeometry relative="1" as="geometry" />
        </mxCell>
        <mxCell id="iETQVbHVjCS1s0NTEEo1-32" value="CUIT o CUIL" style="ellipse;whiteSpace=wrap;html=1;align=center;" parent="1" vertex="1">
          <mxGeometry x="1211" y="930" width="100" height="40" as="geometry" />
        </mxCell>
        <mxCell id="iETQVbHVjCS1s0NTEEo1-33" value="Precio total" style="ellipse;whiteSpace=wrap;html=1;align=center;" parent="1" vertex="1">
          <mxGeometry x="1211" y="990" width="100" height="40" as="geometry" />
        </mxCell>
        <mxCell id="iETQVbHVjCS1s0NTEEo1-39" style="edgeStyle=orthogonalEdgeStyle;rounded=0;orthogonalLoop=1;jettySize=auto;html=1;entryX=0.5;entryY=1;entryDx=0;entryDy=0;" parent="1" source="iETQVbHVjCS1s0NTEEo1-37" target="XaFl8BIAk3fpNfS8gTh8-112" edge="1">
          <mxGeometry relative="1" as="geometry" />
        </mxCell>
        <mxCell id="iETQVbHVjCS1s0NTEEo1-37" value="precio venta" style="ellipse;whiteSpace=wrap;html=1;align=center;" parent="1" vertex="1">
          <mxGeometry x="810" y="240" width="100" height="40" as="geometry" />
        </mxCell>
        <mxCell id="iETQVbHVjCS1s0NTEEo1-48" style="edgeStyle=orthogonalEdgeStyle;rounded=0;orthogonalLoop=1;jettySize=auto;html=1;entryX=0;entryY=0.5;entryDx=0;entryDy=0;" parent="1" target="iETQVbHVjCS1s0NTEEo1-50" edge="1">
          <mxGeometry relative="1" as="geometry">
            <mxPoint x="1160" y="300" as="sourcePoint" />
          </mxGeometry>
        </mxCell>
        <mxCell id="iETQVbHVjCS1s0NTEEo1-105" style="edgeStyle=orthogonalEdgeStyle;rounded=0;orthogonalLoop=1;jettySize=auto;html=1;entryX=0.5;entryY=0;entryDx=0;entryDy=0;" parent="1" source="iETQVbHVjCS1s0NTEEo1-50" target="iETQVbHVjCS1s0NTEEo1-99" edge="1">
          <mxGeometry relative="1" as="geometry" />
        </mxCell>
        <mxCell id="iETQVbHVjCS1s0NTEEo1-50" value="Producto por proveedor" style="ellipse;whiteSpace=wrap;html=1;align=center;" parent="1" vertex="1">
          <mxGeometry x="1211" y="370.00000000000006" width="100" height="40" as="geometry" />
        </mxCell>
        <mxCell id="iETQVbHVjCS1s0NTEEo1-107" style="edgeStyle=orthogonalEdgeStyle;rounded=0;orthogonalLoop=1;jettySize=auto;html=1;entryX=0.5;entryY=0;entryDx=0;entryDy=0;" parent="1" source="iETQVbHVjCS1s0NTEEo1-51" target="iETQVbHVjCS1s0NTEEo1-81" edge="1">
          <mxGeometry relative="1" as="geometry" />
        </mxCell>
        <mxCell id="iETQVbHVjCS1s0NTEEo1-51" value="Cantidad" style="ellipse;whiteSpace=wrap;html=1;align=center;" parent="1" vertex="1">
          <mxGeometry x="1210" y="490.00000000000006" width="100" height="40" as="geometry" />
        </mxCell>
        <mxCell id="iETQVbHVjCS1s0NTEEo1-52" style="edgeStyle=orthogonalEdgeStyle;rounded=0;orthogonalLoop=1;jettySize=auto;html=1;exitX=0.5;exitY=1;exitDx=0;exitDy=0;" parent="1" source="iETQVbHVjCS1s0NTEEo1-51" target="iETQVbHVjCS1s0NTEEo1-51" edge="1">
          <mxGeometry relative="1" as="geometry" />
        </mxCell>
        <mxCell id="iETQVbHVjCS1s0NTEEo1-114" style="edgeStyle=orthogonalEdgeStyle;rounded=0;orthogonalLoop=1;jettySize=auto;html=1;entryX=0.5;entryY=0;entryDx=0;entryDy=0;" parent="1" source="iETQVbHVjCS1s0NTEEo1-54" target="iETQVbHVjCS1s0NTEEo1-57" edge="1">
          <mxGeometry relative="1" as="geometry" />
        </mxCell>
        <mxCell id="iETQVbHVjCS1s0NTEEo1-54" value="Nro de Factura" style="ellipse;whiteSpace=wrap;html=1;align=center;fontStyle=4;" parent="1" vertex="1">
          <mxGeometry x="1202" y="116.25" width="119" height="47.5" as="geometry" />
        </mxCell>
        <mxCell id="iETQVbHVjCS1s0NTEEo1-55" style="edgeStyle=orthogonalEdgeStyle;rounded=0;orthogonalLoop=1;jettySize=auto;html=1;entryX=0;entryY=0.5;entryDx=0;entryDy=0;" parent="1" target="iETQVbHVjCS1s0NTEEo1-54" edge="1">
          <mxGeometry relative="1" as="geometry">
            <mxPoint x="1161" y="140" as="sourcePoint" />
          </mxGeometry>
        </mxCell>
        <mxCell id="iETQVbHVjCS1s0NTEEo1-56" style="edgeStyle=orthogonalEdgeStyle;rounded=0;orthogonalLoop=1;jettySize=auto;html=1;entryX=0.5;entryY=0;entryDx=0;entryDy=0;" parent="1" source="iETQVbHVjCS1s0NTEEo1-57" target="iETQVbHVjCS1s0NTEEo1-58" edge="1">
          <mxGeometry relative="1" as="geometry" />
        </mxCell>
        <mxCell id="iETQVbHVjCS1s0NTEEo1-57" value="Cuit Empresa" style="ellipse;whiteSpace=wrap;html=1;align=center;" parent="1" vertex="1">
          <mxGeometry x="1211" y="187.5" width="100" height="40" as="geometry" />
        </mxCell>
        <mxCell id="iETQVbHVjCS1s0NTEEo1-58" value="Precio total" style="ellipse;whiteSpace=wrap;html=1;align=center;" parent="1" vertex="1">
          <mxGeometry x="1210" y="250" width="100" height="40" as="geometry" />
        </mxCell>
        <mxCell id="iETQVbHVjCS1s0NTEEo1-59" value="&lt;b&gt;1 : N&lt;/b&gt;" style="text;html=1;strokeColor=none;fillColor=none;align=center;verticalAlign=middle;whiteSpace=wrap;rounded=0;" parent="1" vertex="1">
          <mxGeometry x="720" y="430" width="60" height="30" as="geometry" />
        </mxCell>
        <mxCell id="iETQVbHVjCS1s0NTEEo1-60" value="&lt;b&gt;1 : N&lt;/b&gt;" style="text;html=1;strokeColor=none;fillColor=none;align=center;verticalAlign=middle;whiteSpace=wrap;rounded=0;" parent="1" vertex="1">
          <mxGeometry x="880" y="750" width="60" height="30" as="geometry" />
        </mxCell>
        <mxCell id="iETQVbHVjCS1s0NTEEo1-61" value="&lt;b&gt;1 : N&lt;/b&gt;" style="text;html=1;strokeColor=none;fillColor=none;align=center;verticalAlign=middle;whiteSpace=wrap;rounded=0;" parent="1" vertex="1">
          <mxGeometry x="880" y="110" width="60" height="30" as="geometry" />
        </mxCell>
        <mxCell id="iETQVbHVjCS1s0NTEEo1-62" value="&lt;b&gt;1 : N&lt;/b&gt;" style="text;html=1;strokeColor=none;fillColor=none;align=center;verticalAlign=middle;whiteSpace=wrap;rounded=0;" parent="1" vertex="1">
          <mxGeometry x="1100" y="180" width="60" height="30" as="geometry" />
        </mxCell>
        <mxCell id="iETQVbHVjCS1s0NTEEo1-63" value="&lt;b&gt;1 : N&lt;/b&gt;" style="text;html=1;strokeColor=none;fillColor=none;align=center;verticalAlign=middle;whiteSpace=wrap;rounded=0;" parent="1" vertex="1">
          <mxGeometry x="1110" y="668.82" width="60" height="30" as="geometry" />
        </mxCell>
        <mxCell id="iETQVbHVjCS1s0NTEEo1-69" style="edgeStyle=orthogonalEdgeStyle;rounded=0;orthogonalLoop=1;jettySize=auto;html=1;entryX=0.5;entryY=0;entryDx=0;entryDy=0;" parent="1" source="iETQVbHVjCS1s0NTEEo1-67" target="XaFl8BIAk3fpNfS8gTh8-22" edge="1">
          <mxGeometry relative="1" as="geometry" />
        </mxCell>
        <mxCell id="iETQVbHVjCS1s0NTEEo1-67" value="Nombre Empresa" style="ellipse;whiteSpace=wrap;html=1;align=center;" parent="1" vertex="1">
          <mxGeometry x="40" y="310" width="100" height="40" as="geometry" />
        </mxCell>
        <mxCell id="iETQVbHVjCS1s0NTEEo1-70" value="Tiempo" style="ellipse;whiteSpace=wrap;html=1;align=center;" parent="1" vertex="1">
          <mxGeometry x="40" y="610" width="100" height="40" as="geometry" />
        </mxCell>
        <mxCell id="iETQVbHVjCS1s0NTEEo1-72" style="edgeStyle=orthogonalEdgeStyle;rounded=0;orthogonalLoop=1;jettySize=auto;html=1;entryX=0.5;entryY=0;entryDx=0;entryDy=0;" parent="1" source="XaFl8BIAk3fpNfS8gTh8-41" target="iETQVbHVjCS1s0NTEEo1-73" edge="1">
          <mxGeometry relative="1" as="geometry">
            <mxPoint x="210" y="500" as="sourcePoint" />
          </mxGeometry>
        </mxCell>
        <mxCell id="iETQVbHVjCS1s0NTEEo1-73" value="Tiempo" style="ellipse;whiteSpace=wrap;html=1;align=center;" parent="1" vertex="1">
          <mxGeometry x="160" y="522.5" width="100" height="40" as="geometry" />
        </mxCell>
        <mxCell id="iETQVbHVjCS1s0NTEEo1-74" style="edgeStyle=orthogonalEdgeStyle;rounded=0;orthogonalLoop=1;jettySize=auto;html=1;entryX=0.5;entryY=0;entryDx=0;entryDy=0;" parent="1" target="iETQVbHVjCS1s0NTEEo1-75" edge="1">
          <mxGeometry relative="1" as="geometry">
            <mxPoint x="330" y="650" as="sourcePoint" />
          </mxGeometry>
        </mxCell>
        <mxCell id="iETQVbHVjCS1s0NTEEo1-75" value="Tiempo" style="ellipse;whiteSpace=wrap;html=1;align=center;" parent="1" vertex="1">
          <mxGeometry x="280" y="670" width="100" height="40" as="geometry" />
        </mxCell>
        <mxCell id="iETQVbHVjCS1s0NTEEo1-76" style="edgeStyle=orthogonalEdgeStyle;rounded=0;orthogonalLoop=1;jettySize=auto;html=1;entryX=0.5;entryY=0;entryDx=0;entryDy=0;" parent="1" target="iETQVbHVjCS1s0NTEEo1-77" edge="1">
          <mxGeometry relative="1" as="geometry">
            <mxPoint x="440" y="740" as="sourcePoint" />
          </mxGeometry>
        </mxCell>
        <mxCell id="iETQVbHVjCS1s0NTEEo1-77" value="Tiempo" style="ellipse;whiteSpace=wrap;html=1;align=center;" parent="1" vertex="1">
          <mxGeometry x="390" y="760" width="100" height="40" as="geometry" />
        </mxCell>
        <mxCell id="iETQVbHVjCS1s0NTEEo1-78" style="edgeStyle=orthogonalEdgeStyle;rounded=0;orthogonalLoop=1;jettySize=auto;html=1;entryX=0.5;entryY=0;entryDx=0;entryDy=0;" parent="1" target="iETQVbHVjCS1s0NTEEo1-79" edge="1">
          <mxGeometry relative="1" as="geometry">
            <mxPoint x="560" y="1030" as="sourcePoint" />
          </mxGeometry>
        </mxCell>
        <mxCell id="iETQVbHVjCS1s0NTEEo1-79" value="Tiempo" style="ellipse;whiteSpace=wrap;html=1;align=center;" parent="1" vertex="1">
          <mxGeometry x="510" y="1050" width="100" height="40" as="geometry" />
        </mxCell>
        <mxCell id="iETQVbHVjCS1s0NTEEo1-81" value="Tiempo" style="ellipse;whiteSpace=wrap;html=1;align=center;" parent="1" vertex="1">
          <mxGeometry x="1210" y="545" width="100" height="40" as="geometry" />
        </mxCell>
        <mxCell id="iETQVbHVjCS1s0NTEEo1-82" style="edgeStyle=orthogonalEdgeStyle;rounded=0;orthogonalLoop=1;jettySize=auto;html=1;exitX=0.5;exitY=1;exitDx=0;exitDy=0;" parent="1" edge="1">
          <mxGeometry relative="1" as="geometry">
            <mxPoint x="1261" y="290" as="sourcePoint" />
            <mxPoint x="1261" y="290" as="targetPoint" />
          </mxGeometry>
        </mxCell>
        <mxCell id="iETQVbHVjCS1s0NTEEo1-83" style="edgeStyle=orthogonalEdgeStyle;rounded=0;orthogonalLoop=1;jettySize=auto;html=1;entryX=0.5;entryY=0;entryDx=0;entryDy=0;" parent="1" target="iETQVbHVjCS1s0NTEEo1-84" edge="1">
          <mxGeometry relative="1" as="geometry">
            <mxPoint x="1261" y="290" as="sourcePoint" />
          </mxGeometry>
        </mxCell>
        <mxCell id="iETQVbHVjCS1s0NTEEo1-84" value="Tiempo" style="ellipse;whiteSpace=wrap;html=1;align=center;" parent="1" vertex="1">
          <mxGeometry x="1210" y="310" width="100" height="40" as="geometry" />
        </mxCell>
        <mxCell id="iETQVbHVjCS1s0NTEEo1-85" style="edgeStyle=orthogonalEdgeStyle;rounded=0;orthogonalLoop=1;jettySize=auto;html=1;exitX=0.5;exitY=1;exitDx=0;exitDy=0;" parent="1" edge="1">
          <mxGeometry relative="1" as="geometry">
            <mxPoint x="1260" y="769.9999999999999" as="sourcePoint" />
            <mxPoint x="1260" y="769.9999999999999" as="targetPoint" />
          </mxGeometry>
        </mxCell>
        <mxCell id="iETQVbHVjCS1s0NTEEo1-86" style="edgeStyle=orthogonalEdgeStyle;rounded=0;orthogonalLoop=1;jettySize=auto;html=1;entryX=0.5;entryY=0;entryDx=0;entryDy=0;" parent="1" target="iETQVbHVjCS1s0NTEEo1-87" edge="1">
          <mxGeometry relative="1" as="geometry">
            <mxPoint x="1260" y="769.9999999999999" as="sourcePoint" />
          </mxGeometry>
        </mxCell>
        <mxCell id="iETQVbHVjCS1s0NTEEo1-87" value="Tiempo" style="ellipse;whiteSpace=wrap;html=1;align=center;" parent="1" vertex="1">
          <mxGeometry x="1210" y="799.9999999999999" width="100" height="40" as="geometry" />
        </mxCell>
        <mxCell id="iETQVbHVjCS1s0NTEEo1-88" style="edgeStyle=orthogonalEdgeStyle;rounded=0;orthogonalLoop=1;jettySize=auto;html=1;exitX=0.5;exitY=1;exitDx=0;exitDy=0;" parent="1" edge="1">
          <mxGeometry relative="1" as="geometry">
            <mxPoint x="1261" y="1030" as="sourcePoint" />
            <mxPoint x="1261" y="1030" as="targetPoint" />
          </mxGeometry>
        </mxCell>
        <mxCell id="iETQVbHVjCS1s0NTEEo1-89" style="edgeStyle=orthogonalEdgeStyle;rounded=0;orthogonalLoop=1;jettySize=auto;html=1;entryX=0.5;entryY=0;entryDx=0;entryDy=0;" parent="1" target="iETQVbHVjCS1s0NTEEo1-90" edge="1">
          <mxGeometry relative="1" as="geometry">
            <mxPoint x="1261" y="1030" as="sourcePoint" />
          </mxGeometry>
        </mxCell>
        <mxCell id="iETQVbHVjCS1s0NTEEo1-90" value="Tiempo" style="ellipse;whiteSpace=wrap;html=1;align=center;" parent="1" vertex="1">
          <mxGeometry x="1211" y="1050" width="100" height="40" as="geometry" />
        </mxCell>
        <mxCell id="iETQVbHVjCS1s0NTEEo1-91" value="Tiempo" style="ellipse;whiteSpace=wrap;html=1;align=center;" parent="1" vertex="1">
          <mxGeometry x="930" y="180" width="60" height="40" as="geometry" />
        </mxCell>
        <mxCell id="iETQVbHVjCS1s0NTEEo1-93" value="" style="edgeStyle=orthogonalEdgeStyle;rounded=0;orthogonalLoop=1;jettySize=auto;html=1;entryX=0.5;entryY=0;entryDx=0;entryDy=0;" parent="1" target="XaFl8BIAk3fpNfS8gTh8-41" edge="1">
          <mxGeometry relative="1" as="geometry">
            <mxPoint x="210" y="440" as="sourcePoint" />
            <mxPoint x="210" y="569" as="targetPoint" />
          </mxGeometry>
        </mxCell>
        <mxCell id="XaFl8BIAk3fpNfS8gTh8-41" value="precio costo" style="ellipse;whiteSpace=wrap;html=1;align=center;" parent="1" vertex="1">
          <mxGeometry x="160" y="460" width="100" height="40" as="geometry" />
        </mxCell>
        <mxCell id="iETQVbHVjCS1s0NTEEo1-95" value="&lt;b&gt;PK&lt;/b&gt;" style="text;html=1;strokeColor=none;fillColor=none;align=center;verticalAlign=middle;whiteSpace=wrap;rounded=0;" parent="1" vertex="1">
          <mxGeometry x="1290" y="110" width="60" height="30" as="geometry" />
        </mxCell>
        <mxCell id="iETQVbHVjCS1s0NTEEo1-96" value="&lt;b&gt;PK&lt;/b&gt;" style="text;html=1;strokeColor=none;fillColor=none;align=center;verticalAlign=middle;whiteSpace=wrap;rounded=0;" parent="1" vertex="1">
          <mxGeometry x="1280" y="360" width="60" height="30" as="geometry" />
        </mxCell>
        <mxCell id="iETQVbHVjCS1s0NTEEo1-97" value="&lt;b&gt;PK&lt;/b&gt;" style="text;html=1;strokeColor=none;fillColor=none;align=center;verticalAlign=middle;whiteSpace=wrap;rounded=0;" parent="1" vertex="1">
          <mxGeometry x="1280" y="600" width="60" height="30" as="geometry" />
        </mxCell>
        <mxCell id="iETQVbHVjCS1s0NTEEo1-98" value="&lt;b&gt;PK&lt;/b&gt;" style="text;html=1;strokeColor=none;fillColor=none;align=center;verticalAlign=middle;whiteSpace=wrap;rounded=0;" parent="1" vertex="1">
          <mxGeometry x="1290" y="850" width="60" height="30" as="geometry" />
        </mxCell>
        <mxCell id="iETQVbHVjCS1s0NTEEo1-101" style="edgeStyle=orthogonalEdgeStyle;rounded=0;orthogonalLoop=1;jettySize=auto;html=1;entryX=0.5;entryY=0;entryDx=0;entryDy=0;exitX=0.5;exitY=1;exitDx=0;exitDy=0;" parent="1" source="iETQVbHVjCS1s0NTEEo1-99" target="iETQVbHVjCS1s0NTEEo1-51" edge="1">
          <mxGeometry relative="1" as="geometry" />
        </mxCell>
        <mxCell id="iETQVbHVjCS1s0NTEEo1-99" value="Nro de Factura" style="ellipse;whiteSpace=wrap;html=1;align=center;fontStyle=4;" parent="1" vertex="1">
          <mxGeometry x="1211" y="430" width="101" height="42.5" as="geometry" />
        </mxCell>
        <mxCell id="iETQVbHVjCS1s0NTEEo1-117" style="edgeStyle=orthogonalEdgeStyle;rounded=0;orthogonalLoop=1;jettySize=auto;html=1;entryX=0.5;entryY=0;entryDx=0;entryDy=0;" parent="1" source="iETQVbHVjCS1s0NTEEo1-108" target="iETQVbHVjCS1s0NTEEo1-7" edge="1">
          <mxGeometry relative="1" as="geometry" />
        </mxCell>
        <mxCell id="iETQVbHVjCS1s0NTEEo1-108" value="Nro de Factura" style="ellipse;whiteSpace=wrap;html=1;align=center;fontStyle=4;" parent="1" vertex="1">
          <mxGeometry x="1210" y="670" width="101" height="42.5" as="geometry" />
        </mxCell>
        <mxCell id="VAsOoRxcdqT8i7x3UbxG-1" value="&lt;b style=&quot;border-color: var(--border-color); color: rgb(0, 0, 0); font-family: Helvetica; font-size: 12px; font-style: normal; font-variant-ligatures: normal; font-variant-caps: normal; letter-spacing: normal; orphans: 2; text-align: center; text-indent: 0px; text-transform: none; widows: 2; word-spacing: 0px; -webkit-text-stroke-width: 0px; background-color: rgb(251, 251, 251); text-decoration-thickness: initial; text-decoration-style: initial; text-decoration-color: initial;&quot;&gt;La tabla stock seria una tabla intermedia entre las compras y sus facturas como también entre las ventas con sus facturas. La PK en stock copmo en el detalle de las facturas coincidiría con la PK &quot;productos por vendedor&quot; ya que dicha PK nos daria la individualización única por producto&lt;/b&gt;" style="text;whiteSpace=wrap;html=1;" vertex="1" parent="1">
          <mxGeometry x="740" y="505" width="300" height="80" as="geometry" />
        </mxCell>
      </root>
    </mxGraphModel>
  </diagram>
</mxfile>
